# xmcd CD database file
# Copyright (C) 1993-1996 Ti Kan
#
# Track frame offsets:
#	182
#	16612
#	28577
#	41682
#	55892
#	68142
#	82465
#	96225
#	107260
#	122237
#	136687
#
# Disc length: 2016 seconds
#
# Revision: 1
# Processed by: cddbd v1.4b41PL1 Copyright (c) Steve Scherf et al.
# Submitted via: CDValet v3.01 - Copyright (c) 1997 Greg Leichner
#
DISCID=8b07de0b
DTITLE=Hugh Moffatt and Katy Moffatt - Dance Me Outside
DYEAR=1900
DGENRE=
TTITLE0=It's Been Decided
TTITLE1=We'll Sweep Out The Ashes (In The Morning)
TTITLE2=On The Borderline
TTITLE3=I Get Lonely For You
TTITLE4=I Don't Believe You've Met My Baby
TTITLE5=Dance Me Outside
TTITLE6=Right Over Me
TTITLE7=La Luna
TTITLE8=Making New
TTITLE9=Walking On The Moon
TTITLE10=Dark End Of The Street
EXTD=
EXTT0=
EXTT1=
EXTT2=
EXTT3=
EXTT4=
EXTT5=
EXTT6=
EXTT7=
EXTT8=
EXTT9=
EXTT10=
PLAYORDER=
